# xmcd
#
# Track frame offsets:
#	150
#	13287
#	30026
#	44585
#
# Disc length: 882 seconds
#
# Revision: 0
# Processed by: cddbd v1.5.2PL0 Copyright (c) Steve Scherf et al.
# Submitted via: audiograbber 1.83.01
#
DISCID=27037004
DTITLE=Phonik - Frei
DYEAR=2007
DGENRE=Rock
TTITLE0=Wir sind frei
TTITLE1=Frei wie ein Vogel
TTITLE2=Weltuntergang
TTITLE3=Vergangenheit
EXTD=
EXTT0=
EXTT1=
EXTT2=
EXTT3=
PLAYORDER=
